<?xml version="1.0" encoding="utf-8"?>
<!-- Generator: Adobe Illustrator 23.0.3, SVG Export Plug-In . SVG Version: 6.00 Build 0)  -->
<!DOCTYPE svg PUBLIC "-//W3C//DTD SVG 1.1//EN" "http://www.w3.org/Graphics/SVG/1.1/DTD/svg11.dtd" [
	<!ENTITY st0 "fill:#FCA383;">
	<!ENTITY st1 "fill:#FFFFFF;">
]>
<svg version="1.1" id="圖層_1" xmlns="http://www.w3.org/2000/svg" xmlns:xlink="http://www.w3.org/1999/xlink" x="0px" y="0px"
	 viewBox="0 0 42 42" style="enable-background:new 0 0 42 42;" xml:space="preserve">
<g>
	<g>
		<circle style="&st0;" cx="21" cy="21" r="20"/>
	</g>
	<path style="&st1;" d="M34.8,21l-4.9-3.4v-4h-3.8v1.3l-4.7-3.3c-0.2-0.1-0.5-0.1-0.7,0L7.2,21c-0.4,0.3-0.2,0.9,0.3,0.9h3v11.4
		c0,0.5,0.5,0.9,1,0.9H15v-9h6.9v9h8.6c0.6,0,1-0.4,1-0.9V21.9h3C35,21.9,35.2,21.3,34.8,21z"/>
	<path style="&st1;" d="M32.1,9.3c0.1-0.6-0.4-1.1-1-1.2c-0.2,0-0.4,0-0.6,0.1C30.3,8.1,30.1,8,29.9,8c-0.6-0.1-1.2,0.3-1.3,0.9
		c-0.6-0.1-1.2,0.3-1.3,0.9c-0.1,0.6,0.4,1.1,1,1.2c-0.1,0.6,0.4,1.1,1,1.2s1.2-0.3,1.3-0.9c0.6,0.1,1.2-0.3,1.3-0.9
		c0-0.2,0-0.4-0.1-0.5C32,9.6,32.1,9.5,32.1,9.3z"/>
</g>
</svg>
