<svg xmlns="http://www.w3.org/2000/svg" xml:space="preserve" style="enable-background:new 0 0 42 42" viewBox="0 0 42 42"><circle cx="21" cy="21" r="20" style="fill:#fca383"/><path d="m34.8 21-4.9-3.4v-4h-3.8v1.3l-4.7-3.3c-.2-.1-.5-.1-.7 0L7.2 21c-.4.3-.2.9.3.9h3v11.4c0 .5.5.9 1 .9H15v-9h6.9v9h8.6c.6 0 1-.4 1-.9V21.9h3c.5 0 .7-.6.3-.9zM32.1 9.3c.1-.6-.4-1.1-1-1.2-.2 0-.4 0-.6.1-.2-.1-.4-.2-.6-.2-.6-.1-1.2.3-1.3.9-.6-.1-1.2.3-1.3.9-.1.6.4 1.1 1 1.2-.1.6.4 1.1 1 1.2s1.2-.3 1.3-.9c.6.1 1.2-.3 1.3-.9 0-.2 0-.4-.1-.5.2-.3.3-.4.3-.6z" style="fill:#fff"/></svg>